<svg width="8" height="12" viewBox="0 0 8 12" fill="none" xmlns="http://www.w3.org/2000/svg">
<path fill-rule="evenodd" clip-rule="evenodd" d="M6.995 4.99501C7.18247 5.18254 7.28779 5.43684 7.28779 5.70201C7.28779 5.96717 7.18247 6.22148 6.995 6.40901L2.402 11.002C2.21571 11.1846 1.9649 11.2862 1.70407 11.2849C1.44324 11.2836 1.19347 11.1794 1.00903 10.995C0.824598 10.8105 0.7204 10.5608 0.719083 10.2999C0.717766 10.0391 0.819435 9.7883 1.002 9.60201L4.902 5.70201L1.002 1.80201C0.819435 1.61572 0.717766 1.36491 0.719083 1.10408C0.7204 0.843251 0.824598 0.59348 1.00903 0.409044C1.19347 0.224607 1.44324 0.12041 1.70407 0.119092C1.9649 0.117775 2.21571 0.219445 2.402 0.402008L6.995 4.99501Z" fill="#A5ADBA"/>
</svg>
